<mxfile host="app.diagrams.net" agent="Mozilla/5.0 (Windows NT 10.0; Win64; x64) AppleWebKit/537.36 (KHTML, like Gecko) Chrome/132.0.0.0 Safari/537.36" version="26.0.10">
  <diagram name="Page-1" id="dw7ZXmIKK80WhLObPSym">
    <mxGraphModel dx="1434" dy="858" grid="1" gridSize="10" guides="1" tooltips="1" connect="1" arrows="1" fold="1" page="1" pageScale="1" pageWidth="850" pageHeight="1100" math="0" shadow="0">
      <root>
        <mxCell id="0" />
        <mxCell id="1" parent="0" />
        <mxCell id="UF_Mse2QHCFi8mmVehpi-16" value="User&#39;s Laptop" style="swimlane;startSize=20;horizontal=1;containerType=tree;" vertex="1" parent="1">
          <mxGeometry x="40" y="160" width="400" height="340" as="geometry">
            <mxRectangle x="470" y="400" width="120" height="30" as="alternateBounds" />
          </mxGeometry>
        </mxCell>
        <mxCell id="UF_Mse2QHCFi8mmVehpi-15" value="Attribute" style="ellipse;whiteSpace=wrap;html=1;align=center;" vertex="1" parent="UF_Mse2QHCFi8mmVehpi-16">
          <mxGeometry x="100" y="210" width="200" height="80" as="geometry" />
        </mxCell>
        <mxCell id="UF_Mse2QHCFi8mmVehpi-20" value="Attribute" style="ellipse;whiteSpace=wrap;html=1;align=center;" vertex="1" parent="UF_Mse2QHCFi8mmVehpi-16">
          <mxGeometry x="100" y="50" width="200" height="80" as="geometry" />
        </mxCell>
        <mxCell id="UF_Mse2QHCFi8mmVehpi-21" value="Turtlebot3 Robot" style="swimlane;startSize=20;horizontal=1;containerType=tree;" vertex="1" parent="1">
          <mxGeometry x="640" y="160" width="400" height="340" as="geometry">
            <mxRectangle x="470" y="400" width="120" height="30" as="alternateBounds" />
          </mxGeometry>
        </mxCell>
        <mxCell id="UF_Mse2QHCFi8mmVehpi-22" value="Attribute" style="ellipse;whiteSpace=wrap;html=1;align=center;" vertex="1" parent="UF_Mse2QHCFi8mmVehpi-21">
          <mxGeometry x="100" y="210" width="200" height="80" as="geometry" />
        </mxCell>
        <mxCell id="UF_Mse2QHCFi8mmVehpi-23" value="Attribute" style="ellipse;whiteSpace=wrap;html=1;align=center;" vertex="1" parent="UF_Mse2QHCFi8mmVehpi-21">
          <mxGeometry x="100" y="50" width="200" height="80" as="geometry" />
        </mxCell>
      </root>
    </mxGraphModel>
  </diagram>
</mxfile>
